<svg width="14" height="14" viewBox="0 0 14 14" fill="none" xmlns="http://www.w3.org/2000/svg">
<path d="M10.6 13.6666C7.8782 13.6631 5.26889 12.5803 3.34428 10.6557C1.41967 8.73109 0.336871 6.12177 0.333344 3.39996C0.333344 2.58663 0.656438 1.80661 1.23155 1.2315C1.80666 0.656392 2.58668 0.333298 3.40001 0.333298C3.57224 0.331986 3.74418 0.347617 3.91334 0.379964C4.07688 0.404165 4.23766 0.444357 4.39334 0.499964C4.50284 0.538384 4.60042 0.60472 4.67642 0.692412C4.75242 0.780105 4.80421 0.886117 4.82668 0.999964L5.74001 4.99996C5.76463 5.10854 5.76166 5.22155 5.73139 5.32869C5.70111 5.43582 5.64448 5.53367 5.56668 5.6133C5.48001 5.70663 5.47334 5.7133 4.65334 6.13996C5.31001 7.58054 6.46214 8.7374 7.90001 9.39996C8.33334 8.5733 8.34001 8.56663 8.43334 8.47996C8.51297 8.40216 8.61082 8.34553 8.71795 8.31525C8.82509 8.28498 8.9381 8.28201 9.04668 8.30663L13.0467 9.21996C13.1569 9.24553 13.2588 9.29873 13.3427 9.37453C13.4267 9.45034 13.49 9.54627 13.5267 9.6533C13.5829 9.81154 13.6253 9.97437 13.6533 10.14C13.6802 10.3075 13.6936 10.4769 13.6933 10.6466C13.6811 11.4565 13.3489 12.2286 12.7693 12.7944C12.1898 13.3602 11.4099 13.6738 10.6 13.6666ZM3.40001 1.66663C2.94084 1.66839 2.50098 1.85157 2.1763 2.17625C1.85162 2.50094 1.66843 2.9408 1.66668 3.39996C1.66844 5.76869 2.6102 8.03989 4.28514 9.71483C5.96008 11.3898 8.23128 12.3315 10.6 12.3333C11.0592 12.3315 11.499 12.1484 11.8237 11.8237C12.1484 11.499 12.3316 11.0591 12.3333 10.6V10.38L9.24001 9.66663L9.04668 10.0333C8.74668 10.6133 8.52668 11.0333 7.96668 10.8066C6.86193 10.4112 5.85914 9.77465 5.03117 8.94322C4.20319 8.11178 3.57083 7.10635 3.18001 5.99996C2.94001 5.47996 3.39334 5.23996 3.96668 4.93996L4.33334 4.75996L3.62001 1.66663H3.40001Z" fill="#969696"/>
</svg>
